<svg width="39" height="45" viewBox="0 0 39 45" fill="none" xmlns="http://www.w3.org/2000/svg">
<path d="M19.9464 25.4431C19.7679 25.4431 19.4467 25.4074 19.0899 25.3361C17.8051 25.229 17.1627 24.6937 15.8423 23.5517C15.8423 24.0513 15.7709 24.6937 15.5925 25.3361C16.0921 25.6929 17.1627 27.1204 19.9107 29.226C19.9464 29.226 19.9464 29.2617 19.9464 29.2617H19.9821C19.9821 29.2617 19.9821 29.226 20.0177 29.226C22.8371 27.0847 23.872 25.6572 24.3717 25.3004C24.336 25.1933 24.3003 25.1219 24.3003 25.0149V24.9792C24.1218 24.4082 24.1218 23.8015 24.1218 23.8015C24.1218 23.6944 24.1218 23.623 24.1218 23.5517C22.8014 24.7294 22.159 25.229 20.8029 25.3004C20.4103 25.4074 20.1248 25.4431 19.9464 25.4431Z" fill="#EACCB0"/>
<path d="M15.878 23.5517C17.1984 24.7294 17.8408 25.229 19.1256 25.3361C18.1977 25.1219 16.9486 24.5153 16.9843 23.0164C17.0557 20.9822 18.9471 20.5896 19.9464 20.5896C20.9813 20.5896 22.8728 20.9822 22.9442 23.0164C23.0155 24.5153 21.6951 25.1219 20.7672 25.3361C22.1234 25.2647 22.7657 24.7651 24.0862 23.5874C24.1219 23.5517 24.1576 23.516 24.2289 23.4803C25.9776 21.9457 25.0854 18.7695 26.1561 18.948C27.1196 19.1264 28.2616 16.5212 27.7263 15.629C27.2981 15.4863 27.0126 15.7717 26.6914 16.3071C26.3702 16.8424 26.5129 17.6989 26.1918 17.6632C25.7635 16.2 25.8706 14.8796 25.9419 13.345C23.0512 14.2372 20.0535 14.7011 17.6267 12.8454C17.591 12.8097 17.591 12.8097 17.5553 12.774C16.6274 12.8097 15.6996 12.8097 14.8074 12.8454C14.7717 13.0238 14.7717 13.2022 14.8074 13.3807C14.8787 13.8089 14.9144 14.4156 14.9144 14.6654C14.9858 15.5576 14.4505 16.6639 14.272 16.8781C14.1293 17.0208 13.8438 17.5918 13.6297 17.6275C13.4869 17.6632 13.594 16.7353 13.0587 15.9145C12.6661 15.2721 12.452 15.4149 12.452 15.4149C11.6312 16.0929 12.8445 19.0907 13.8795 18.9123C14.9501 18.6982 14.0579 21.91 15.8066 23.4446C15.8066 23.4803 15.8423 23.516 15.878 23.5517C15.878 23.5517 15.8423 23.5517 15.878 23.5517Z" fill="#F2D4B6"/>
<path d="M19.197 23.3019C19.304 23.0164 19.9821 23.3375 19.9821 23.3375C19.9821 23.3375 20.6602 23.0164 20.7672 23.3019C20.8743 23.5874 20.2676 24.2297 21.4096 23.9442C22.5516 23.6587 22.623 22.3383 21.7665 22.0171C20.91 21.6959 20.0178 21.7673 20.0178 21.7673C20.0178 21.7673 19.0899 21.6959 18.2691 22.0171C17.4126 22.3383 17.484 23.6587 18.626 23.9442C19.6966 24.2297 19.0542 23.5874 19.197 23.3019Z" fill="#F2D4B6"/>
<path d="M20.1248 12.774C19.2683 12.774 18.4118 12.774 17.5196 12.8097C17.5553 12.8454 17.5553 12.8454 17.591 12.881C20.0177 14.7368 23.0155 14.2729 25.9062 13.3807C25.8348 14.9153 25.7278 16.2357 26.156 17.6989C26.4772 17.7346 26.3345 16.8781 26.6557 16.3428C26.9768 15.8074 27.2623 15.5219 27.6906 15.6647C28.0118 14.9509 28.2259 13.9874 28.2973 12.9881C25.9062 12.881 22.8728 12.774 20.1248 12.774Z" fill="#534D46"/>
<path d="M13.0229 15.9502C13.5583 16.771 13.4512 17.6989 13.5939 17.6632C13.7724 17.6275 14.0936 17.0565 14.2363 16.9138C14.4505 16.6996 14.9858 15.5933 14.8787 14.7011C14.843 14.4513 14.8073 13.8446 14.7716 13.4164C14.736 13.2022 14.736 13.0238 14.7716 12.881C13.7724 12.9167 12.7731 12.9524 11.9166 12.9524C11.9166 13.0238 11.9166 13.0595 11.9166 13.1309C11.9523 13.5591 12.2021 15.0937 12.4519 15.4506C12.4519 15.4506 12.6304 15.3078 13.0229 15.9502Z" fill="#534D46"/>
<path d="M20.7672 25.3361C21.7308 25.1219 23.0155 24.5152 22.9441 23.0164C22.8728 20.9822 20.9813 20.5896 19.9464 20.5896C18.9114 20.5896 17.0557 20.9822 16.9843 23.0164C16.9486 24.4795 18.162 25.0862 19.1256 25.3361C19.4824 25.4074 19.8036 25.4431 19.9821 25.4431C20.1248 25.4431 20.4103 25.4074 20.7672 25.3361ZM18.5545 23.9442C17.4125 23.6587 17.3412 22.3383 18.1977 22.0171C19.0542 21.6959 19.9464 21.7673 19.9464 21.7673C19.9464 21.7673 20.8743 21.6959 21.6951 22.0171C22.5516 22.3383 22.4802 23.6587 21.3382 23.9442C20.1962 24.2297 20.8386 23.5874 20.6958 23.3018C20.5887 23.0163 19.9107 23.3375 19.9107 23.3375C19.9107 23.3375 19.2326 23.0163 19.1256 23.3018C19.0542 23.5874 19.6966 24.2297 18.5545 23.9442Z" fill="#534D46"/>
<path d="M12.5233 8.74126C13.3085 8.45576 16.6274 7.88475 20.1248 7.88475C23.6222 7.88475 26.9769 8.45576 27.7263 8.74126C27.7977 8.77695 27.8334 8.81263 27.9048 8.84832C27.9048 8.84832 27.9048 8.84831 27.9048 8.81262C27.3694 5.92192 26.5129 2.03196 25.6564 1.6394C24.336 1.06839 23.4081 0.782882 22.159 1.13976C20.91 1.49664 20.7672 1.46096 20.1248 1.46096C19.4825 1.46096 19.3397 1.49664 18.0906 1.13976C16.8416 0.782882 15.9137 1.06839 14.5932 1.6394C13.7367 2.03196 12.8802 5.92192 12.3449 8.81262C12.3806 8.77693 12.452 8.74126 12.5233 8.74126Z" fill="#514D4A"/>
<path d="M18.2334 10.5257C19.3397 10.4543 20.1249 10.4186 20.1249 10.4186C20.1249 10.4186 20.91 10.4543 22.0163 10.5257C20.91 10.4543 20.1249 10.4186 20.1249 10.4186C20.1249 10.4186 19.3754 10.4543 18.2334 10.5257Z" fill="#514D4A"/>
<path d="M18.2334 10.5256C19.3397 10.4543 20.1248 10.4186 20.1248 10.4186C20.1248 10.4186 20.8742 10.4543 22.0163 10.5256C24.0148 10.6684 27.0125 10.9539 28.3687 11.4535C28.5471 11.168 28.44 9.34794 27.9047 8.84831C27.8334 8.81262 27.7977 8.74125 27.7263 8.74125C26.9412 8.45575 23.6222 7.88474 20.1248 7.88474C16.6274 7.88474 13.2728 8.45575 12.5233 8.74125C12.4519 8.77694 12.4163 8.81262 12.3449 8.84831C11.8096 9.34794 11.7025 11.168 11.8809 11.4535C13.2371 10.9539 16.2348 10.6684 18.2334 10.5256Z" fill="#44413E"/>
<path d="M14.7717 12.881C15.6639 12.8454 16.5917 12.8453 17.5196 12.8097C18.4118 12.774 19.2683 12.774 20.1248 12.774C22.8728 12.774 25.9062 12.9167 28.333 12.9524C30.8668 13.0238 32.6869 13.0238 32.6155 12.774C32.4371 12.0602 29.3323 11.9532 28.7613 11.632C28.6542 11.5606 28.5114 11.5249 28.3687 11.4535C27.0126 10.9539 23.9791 10.6684 22.0163 10.5257C20.91 10.4543 20.1248 10.4186 20.1248 10.4186C20.1248 10.4186 19.3397 10.4543 18.2334 10.5257C16.2349 10.6684 13.2371 10.9539 11.881 11.4535C11.7382 11.5249 11.5955 11.5606 11.4884 11.632C10.9174 11.9532 7.88394 12.0602 7.63413 12.774C7.52706 13.0238 9.34714 13.0238 11.9167 12.9524C12.7732 12.9167 13.7724 12.881 14.7717 12.881Z" fill="#494643"/>
<path d="M22.3375 32.4379C22.3732 32.1167 22.1947 31.7599 21.9092 31.403C21.8379 32.1524 21.3739 32.6877 20.9814 33.5799C20.9457 33.6513 20.8743 33.7227 20.8029 33.7584C20.8743 34.0796 21.017 34.9717 21.1955 36.1851C22.3018 34.258 23.5509 32.2952 24.1933 31.0104C23.2297 32.2238 22.2661 33.0803 22.3375 32.4379Z" fill="#F4F4F4"/>
<path d="M18.9471 33.5799C18.5546 32.6877 18.0906 32.1524 18.0192 31.403C17.7694 31.7599 17.591 32.1167 17.591 32.4379C17.6624 33.0803 16.6988 32.2238 15.7352 31.0104C16.4133 32.2595 17.6267 34.1509 18.733 36.0067C18.9114 34.8647 19.0542 34.0439 19.0899 33.7584C19.0542 33.7227 18.9828 33.6513 18.9471 33.5799Z" fill="#F4F4F4"/>
<path d="M20.9813 33.5799C21.3739 32.6877 21.8379 32.1524 21.9092 31.403C21.2312 30.5465 20.0178 29.7257 19.9464 29.3688C19.875 29.7257 18.6616 30.5465 17.9836 31.403C18.055 32.1524 18.5189 32.6877 18.9115 33.5799C18.9471 33.6513 19.0185 33.7227 19.0899 33.7584C19.0185 34.0439 18.9115 34.8647 18.733 36.0067C19.197 36.7918 19.6609 37.5413 20.0178 38.255C20.3747 37.5769 20.7672 36.8989 21.1598 36.1851C20.9813 34.9717 20.8386 34.0796 20.7672 33.7584C20.8743 33.7227 20.9457 33.6513 20.9813 33.5799Z" fill="#514D4A"/>
<path d="M20.0177 29.226C19.982 29.226 19.982 29.2617 19.982 29.2617C19.982 29.2617 19.982 29.226 19.9464 29.226C17.1984 27.1204 16.1278 25.6929 15.6281 25.3361C15.6281 25.3361 15.6281 25.3361 15.5925 25.3361V25.3717C13.9151 26.6922 14.7003 28.3695 15.3783 30.1896C15.4497 30.4037 15.5925 30.6892 15.7709 31.0461C16.7345 32.2595 17.698 33.116 17.6267 32.4736C17.591 32.1524 17.7694 31.7955 18.0549 31.4387C18.733 30.5821 19.9464 29.7613 20.0177 29.4044C20.0891 29.7613 21.3025 30.5821 21.9806 31.4387C22.2304 31.7955 22.4088 32.1524 22.4088 32.4736C22.3374 33.116 23.301 32.2595 24.3003 31.0104C24.443 30.6892 24.5858 30.4037 24.6571 30.1896C25.2995 28.3695 26.0846 26.6565 24.443 25.3717V25.3361C23.872 25.6572 22.8014 27.0847 20.0177 29.226Z" fill="#E2E2E2"/>
<path d="M18.9828 40.7175C18.3761 39.8966 17.7338 39.0758 17.02 38.3264C13.8438 34.8647 8.63338 33.4728 8.63338 33.4728C8.63338 33.4728 11.8096 29.6186 11.7382 29.4044C11.7025 29.1546 8.02668 28.9762 8.02668 28.9762C8.02668 28.9762 8.34788 28.7264 8.84751 28.3695C6.09955 29.9041 2.67352 30.8319 2.67352 30.8319C4.88616 30.7606 6.13524 36.3279 6.70624 41.003C9.98951 43.1799 13.8081 44.536 17.9122 44.8929C18.2334 43.4654 18.5903 41.9308 18.9828 40.7175Z" fill="#514D4A"/>
<path d="M2.70921 30.832C2.53077 30.832 2.35233 30.8676 2.17389 30.939C1.70995 31.1531 1.24601 32.7948 0.710693 35.2929C2.38802 37.5412 4.42223 39.4684 6.74193 41.003C6.20661 36.3279 4.92185 30.7249 2.70921 30.832Z" fill="#44413E"/>
<path d="M32.8653 41.2171C33.4007 36.5063 34.6854 30.7249 36.9694 30.9033C36.9694 30.9033 33.7218 30.0111 31.0809 28.5836C31.4021 28.8334 31.5806 28.9762 31.5806 28.9762C31.5806 28.9762 28.0475 29.1546 28.0118 29.4044C27.9761 29.6542 31.0096 33.4728 31.0096 33.4728C31.0096 33.4728 26.0133 34.9003 22.9441 38.3264C21.1241 40.3963 19.6609 42.7873 18.6616 44.9643C19.0899 45 19.5538 45 19.9821 45C24.7285 44.9643 29.1538 43.6082 32.8653 41.2171Z" fill="#494643"/>
<path d="M22.9441 38.2907C26.0133 34.829 31.0096 33.4371 31.0096 33.4371C31.0096 33.4371 27.9761 29.5829 28.0118 29.3688C28.0475 29.1189 31.5806 28.9405 31.5806 28.9405C31.5806 28.9405 31.3664 28.7978 31.0809 28.5479C30.3315 27.9769 28.8683 26.8349 27.9404 26.0498C27.0125 25.229 24.9426 24.1227 24.1218 23.8372C24.1218 23.8372 24.1218 24.4438 24.3003 25.0148V25.0505L24.3716 25.336V25.3717C26.0133 26.6922 25.2282 28.3695 24.5858 30.1896C24.5144 30.4037 24.3716 30.6892 24.2289 31.0104C23.5865 32.2951 22.3374 34.258 21.2311 36.1851C20.8029 36.8989 20.4103 37.6126 20.0891 38.255C19.6966 37.5412 19.2683 36.7918 18.8044 36.0067C17.698 34.1509 16.449 32.2595 15.8066 31.0104C15.6282 30.6892 15.4854 30.4037 15.414 30.1539C14.736 28.3338 13.9508 26.6565 15.6282 25.336V25.3003L15.7352 24.9435C15.878 24.3368 15.9136 23.5516 15.9136 23.516C15.0571 23.5873 12.7731 25.3003 11.9166 26.0141C11.0601 26.7279 9.81105 27.6914 8.95454 28.2981C8.45491 28.655 8.13373 28.9048 8.13373 28.9048C8.13373 28.9048 11.8096 29.0832 11.8452 29.3331C11.8809 29.5829 8.74041 33.4015 8.74041 33.4015C8.74041 33.4015 13.9508 34.829 17.127 38.255C17.8408 39.0044 18.4832 39.8253 19.0899 40.6461C18.6973 41.8595 18.3404 43.4297 18.0549 44.8215C18.269 44.8572 18.5189 44.8572 18.733 44.8572C19.6252 42.7873 21.0884 40.3606 22.9441 38.2907Z" fill="#716D6A"/>
<path d="M32.8654 41.2171C35.2207 39.7182 37.2906 37.8267 38.968 35.6498C38.397 33.0089 37.933 31.2245 37.4334 31.0104C37.255 30.939 37.1122 30.9033 36.9338 30.9033C34.6854 30.7249 33.4007 36.5063 32.8654 41.2171Z" fill="#44413E"/>
</svg>
