<svg width="38" height="44" viewBox="0 0 38 44" fill="none" xmlns="http://www.w3.org/2000/svg">
<path d="M14.7857 24.25C14.7857 24.25 14.5 25.6786 15.3928 26.9286C16.1786 28.0357 17.3928 30 17.9643 31.0714C18 31.1071 18.0357 31.1786 18.0357 31.2143C18.0357 31.25 18.0714 31.25 18.0714 31.2857C18.1071 31.3214 18.1071 31.3571 18.1428 31.3928C18.2143 31.5357 18.25 31.6429 18.2857 31.6786C18.7857 32.75 19.1429 34 19.2857 34.5357C19.3929 34.1429 19.5357 33.6071 19.75 33C19.8928 32.5714 20.0714 32.1071 20.2857 31.6786C20.3214 31.6071 20.3571 31.5357 20.4286 31.3928C20.4286 31.3571 20.4643 31.3214 20.5 31.2857C20.5 31.25 20.5357 31.25 20.5357 31.2143C20.5714 31.1786 20.6071 31.1071 20.6071 31.0714C21.1786 30.0357 22.3928 28.0357 23.1785 26.9286C24.0714 25.6786 23.7857 24.25 23.7857 24.25L23.6429 23.7857C23.5 23.3214 23.4286 22.8929 23.3928 22.5C21.75 23.8929 21.1786 24.3571 19.1786 24.2857C17.2143 24.3571 16.6071 23.9286 15.1071 22.6071C15.0714 22.8929 15.0357 23.2143 14.9286 23.5714H14.9643L14.7857 24.25Z" fill="#EACCB0"/>
<path d="M13 29.8571C13.0357 28.4286 13.25 26.5357 13.4286 25.5C12.9643 25.7857 12.4286 26.0357 11.7857 26.3214C12.0714 27.25 12.5 28.5 13 29.8571Z" fill="#F5F5F5"/>
<path d="M19.25 34.7857C19.25 34.7143 19.2857 34.6786 19.2857 34.6072C19.1429 34.3214 18.7857 33.6786 18.0714 32.8214C17.3572 31.9286 16.8929 31.8214 16.8929 31.8214C16.8929 31.8214 16.4286 31.5714 16.9643 31.3214L17.3214 31.1429C15.2857 30 14.3572 31.25 13.6429 31.6786C15.2143 35.7143 17.25 40.25 19.1072 41.9286C19.1072 41.9286 19.1429 41.9643 19.1429 42V35.1786C19.1786 35.1429 19.1786 35 19.25 34.7857Z" fill="#F5F5F5"/>
<path d="M25.6072 29.2143C26 28.0714 26.3572 27.0714 26.6072 26.25C26.0714 26.0357 25.6072 25.7857 25.2143 25.5714C25.3572 26.4643 25.5357 27.9286 25.6072 29.2143Z" fill="#EAEAEA"/>
<path d="M19.3214 34.5357C19.3928 34.2143 19.5714 33.6429 19.7857 33C19.5714 33.6071 19.3928 34.1429 19.3214 34.5357Z" fill="#EAEAEA"/>
<path d="M21.25 31.1072L21.6072 31.2857C22.1429 31.5714 21.6786 31.7857 21.6786 31.7857C21.6786 31.7857 21.3571 32 20.5 32.7857C19.75 33.4643 19.4286 34.1786 19.2857 34.5357C19.3214 34.6786 19.3572 34.75 19.3572 34.75C19.3572 34.75 19.3214 34.6786 19.2857 34.6072C19.25 34.7143 19.25 34.75 19.25 34.75C19.1786 35 19.1786 35.1429 19.1786 35.1429V41.9643C19.1786 42 19.1786 42 19.2143 42.0357C19.25 41.9286 19.25 41.8572 19.2857 41.8214C21.1429 40.1429 23.2143 35.5714 24.7857 31.5C24.0357 31 23.1072 30.0714 21.25 31.1072Z" fill="#EAEAEA"/>
<path d="M19.2857 34.6071C19.2857 34.6786 19.25 34.7143 19.25 34.7857C19.25 34.75 19.25 34.7143 19.2857 34.6071Z" fill="#EAEAEA"/>
<path d="M3.85716 29.1786C3.75002 29.1786 3.64287 29.2143 3.53573 29.2143C2.35716 29.5357 1.71431 32.5714 0.892883 35.75C2.57145 37.6786 4.57144 39.3571 6.82144 40.6786C6.82144 39.75 6.78573 38.8929 6.64287 38.2143C6.25001 36.0714 3.75002 29.9286 3.85716 29.1786Z" fill="#F5F5F5"/>
<path d="M34.8929 29.2143C34.7858 29.1786 34.6429 29.1786 34.5358 29.1786C34.5 30.1786 32.1072 36.0714 31.75 38.1429C31.6429 38.7857 31.6072 39.5714 31.6072 40.4643C33.8215 39.1071 35.7857 37.3929 37.4643 35.3929C36.7143 32.3572 36 29.5 34.8929 29.2143Z" fill="#F5F5F5"/>
<path d="M34.5357 29.1786C34.5357 29.1072 34.5357 29.0357 34.5 29.0357C34.1071 28.8572 26.75 25.8215 26.6072 26.25C26.3572 27.0714 26 28.0714 25.6072 29.2143C25.6786 30.6429 25.6429 31.8572 25.2857 31.7857C25.1071 31.75 24.9286 31.6429 24.75 31.5C23.1786 35.5357 21.1071 40.1429 19.25 41.8214C19.2143 41.8572 19.2143 41.9286 19.1786 42.0357C19.25 42.3214 19.2857 43.0357 19.3214 44C23.8214 43.9286 28 42.6429 31.5714 40.4643C31.5714 39.6072 31.6071 38.7857 31.7143 38.1429C32.1071 36.0714 34.5 30.1429 34.5357 29.1786Z" fill="#EA9334"/>
<path d="M19.2143 24.2857C21.2143 24.3572 21.7857 23.8929 23.4286 22.5C23.4643 22.5 23.4643 22.4643 23.5 22.4643C25.25 20.9643 24.3572 17.8572 25.4286 18.0357C26.4643 18.2143 27.6786 15.3929 26.9286 14.6786C26.5714 14.6429 26.25 15 25.9643 15.4643C25.6429 16 25.7857 16.8214 25.4643 16.7857C25.0714 15.5 25.1072 14.3214 25.1786 13.0357C23.4286 13.5 21.2857 13.8572 19.3572 13.8572C17.6072 13.8572 15.6429 13.5357 13.9643 13.1429C14 13.4286 14 13.75 14.0357 13.8929C14.1072 14.7857 13.5714 15.8572 13.3571 16.0714C13.2143 16.2143 12.8929 16.7857 12.7143 16.8214C12.5714 16.8572 12.6786 15.9286 12.1429 15.1429C11.7143 14.5 11.5357 14.6429 11.5357 14.6429C10.6786 15.2857 11.9286 18.25 13 18.0714C14.0714 17.8929 13.1786 21 14.9286 22.5C15 22.5714 15.0714 22.6072 15.1429 22.6786C16.6786 23.8929 17.2857 24.3572 19.2143 24.2857Z" fill="#F2D4B6"/>
<path d="M25.2143 13C25.1429 14.3214 25.1071 15.4643 25.5 16.75C25.8214 16.7857 25.6786 15.9643 26 15.4286C26.2857 14.9643 26.5714 14.6072 26.9643 14.6429C27 14.6429 27.0714 14.6429 27.1071 14.6786C27.4286 13.9643 27.6786 13.0714 27.75 12.1786C27.1072 12.4286 26.2143 12.75 25.2143 13Z" fill="#534D46"/>
<path d="M12.1429 15.1072C12.6786 15.8929 12.5714 16.8215 12.7143 16.7857C12.8929 16.75 13.2143 16.1786 13.3571 16.0357C13.5714 15.8215 14.1071 14.75 14.0357 13.8572C14.0357 13.7143 14 13.3929 13.9643 13.1072C12.75 12.8215 11.7143 12.4643 11 12.1429C11 12.2143 11 12.25 11 12.3215C11.0357 12.7143 11.2857 14.25 11.5357 14.6072C11.5357 14.6072 11.75 14.4643 12.1429 15.1072Z" fill="#534D46"/>
<path d="M20.5714 12.3572C21.8214 12.2857 23.6786 12.1071 24.6786 11.8929C26.7143 11.4643 27.7143 11.1429 28.2143 11.0714C28.2857 11.0357 28.3214 11.0357 28.3214 11.0357C28.3214 8.60715 27.75 4.2143 24.1071 2.17859C23.8928 2.57145 20.7857 7.85716 20.5714 12.3572Z" fill="#FCC232"/>
<path d="M14.0714 11.8929C15.0714 12.1071 16.9643 12.25 18.1786 12.3572C17.9643 7.85716 14.8572 2.57145 14.6429 2.17859C11 4.2143 10.4286 8.60715 10.4286 11.0357C10.4286 11.0357 10.4643 11.0357 10.5357 11.0714C11.0357 11.1429 12.0357 11.4643 14.0714 11.8929Z" fill="#FCC232"/>
<path d="M13.9643 13.1072C15.6429 13.5 17.6072 13.8214 19.3572 13.8214C21.2857 13.8214 23.4286 13.4643 25.1786 13C26.1786 12.75 27.0714 12.4286 27.6786 12.1429C28.2857 11.8572 28.6429 11.6072 28.6429 11.4286C28.6429 11.1072 28.5714 11 28.1786 11.0714C27.6786 11.1429 26.6786 11.4643 24.6429 11.8929C23.6429 12.1072 21.75 12.25 20.5357 12.3572C20.75 7.85716 23.8571 2.57145 24.0714 2.1786V2.14288C23 1.07145 20.9286 0.428591 19.1429 0.464305C17.4286 0.464305 15.5 1.17859 14.5357 2.14288C14.5357 2.14288 14.5357 2.14288 14.5357 2.1786C14.7857 2.57145 17.8572 7.85716 18.0714 12.3572C16.8214 12.2857 14.9643 12.1072 13.9643 11.8929C11.9286 11.4643 10.9286 11.1429 10.4286 11.0714C10.0357 11 9.96429 11.1072 9.96429 11.4286C9.96429 11.6072 10.3215 11.8572 10.8929 12.1072C11.7143 12.4643 12.75 12.8214 13.9643 13.1072Z" fill="#F9B234"/>
<path d="M19.1786 42.0357C19.1786 42 19.1786 41.9643 19.1429 41.9643C19.1429 41.9286 19.1072 41.9286 19.1072 41.8928C17.25 40.2143 15.2143 35.6786 13.6429 31.6429C13.5357 31.7143 13.4286 31.75 13.3214 31.7857C13.0357 31.8214 12.9643 30.9643 13 29.8571C12.5 28.5 12.0715 27.25 11.7857 26.3214C11.6072 25.8929 4.32144 28.9286 3.89287 29.1071C3.85716 29.1071 3.85717 29.1429 3.85717 29.1786C3.75002 29.9286 6.25002 36.0714 6.64287 38.2143C6.75002 38.8928 6.78573 39.75 6.82144 40.6786C10.3929 42.7857 14.5714 44 19.0357 44C19.1429 44 19.25 44 19.3572 44C19.2857 43.0357 19.25 42.3214 19.1786 42.0357Z" fill="#F7A037"/>
<path d="M13 29.8572C12.9643 31 13.0714 31.8572 13.3214 31.7857C13.4286 31.7857 13.5357 31.7143 13.6429 31.6429C14.3571 31.2143 15.2857 29.9643 17.3214 31.1072L16.9643 31.2857C16.4286 31.5714 16.8928 31.7857 16.8928 31.7857C16.8928 31.7857 17.3571 31.8929 18.0714 32.7857C18.75 33.6429 19.1428 34.2857 19.2857 34.5714C19.25 34.6786 19.25 34.7143 19.25 34.75C19.25 34.75 19.25 34.6786 19.2857 34.6072C19.3214 34.7143 19.3571 34.75 19.3571 34.75C19.3571 34.75 19.3214 34.6786 19.2857 34.5357C19.4286 34.1786 19.75 33.4643 20.5 32.7857C21.3571 32 21.6786 31.7857 21.6786 31.7857C21.6786 31.7857 22.1428 31.5357 21.6071 31.2857L21.25 31.1072C23.1071 30.0715 24.0357 31 24.7143 31.5C24.8928 31.6429 25.0714 31.75 25.25 31.7857C25.5714 31.8214 25.6428 30.6429 25.5714 29.2143C25.5 27.9286 25.3571 26.4643 25.1786 25.5715C25.1428 25.3215 25.1071 25.1429 25.0714 25C24.75 23.7857 24.1786 23.75 23.6071 23.5357L23.6786 23.7857L23.8214 24.25C23.8214 24.25 24.1071 25.6786 23.2143 26.9286C22.4286 28.0357 21.2143 30 20.6428 31.0714C20.6071 31.1072 20.5714 31.1786 20.5714 31.2143C20.5714 31.25 20.5357 31.25 20.5357 31.2857C20.5 31.3214 20.5 31.3572 20.4643 31.3929C20.3928 31.5357 20.3571 31.6429 20.3214 31.6786C20.1071 32.1072 19.9285 32.5714 19.7857 33C19.5714 33.6429 19.3928 34.2143 19.3214 34.5357C19.1786 34 18.8214 32.75 18.3214 31.6786C18.2857 31.6072 18.25 31.5357 18.1786 31.3929C18.1786 31.3572 18.1429 31.3214 18.1071 31.2857C18.1071 31.25 18.0714 31.25 18.0714 31.2143C18.0357 31.1786 18 31.1072 18 31.0714C17.4286 30.0357 16.2143 28.0357 15.4286 26.9286C14.5357 25.6786 14.8214 24.25 14.8214 24.25L15.0357 23.5357H15C14.4286 23.75 13.8571 23.8215 13.5714 25C13.5357 25.1072 13.5 25.2857 13.4643 25.5C13.25 26.5357 13.0357 28.4286 13 29.8572Z" fill="#E0E0E0"/>
</svg>
